Coordinates
nRows=152
nColumns=2
inDegrees=yes
endheader
time	ankle_angle_r	
2.64819	 18.780958	
2.71976	 18.857044	
2.79133	 18.783569	
2.8629	 18.710510	
2.93448	 18.791943	
3.00605	 18.756702	
3.07762	 18.768311	
3.14919	 18.744919	
3.22077	 18.768311	
3.29234	 18.779087	
3.36391	 18.717844	
3.43548	 18.763412	
3.50706	 18.753052	
3.57863	 18.763681	
3.6502	 18.737793	
3.72177	 18.728266	
3.79335	 18.795446	
3.86492	 18.734827	
3.93649	 18.759407	
4.00806	 18.746489	
4.07964	 18.797112	
4.15121	 18.737793	
4.22278	 18.699203	
4.29435	 18.775705	
4.36593	 18.760654	
4.4375	 18.745604	
4.50907	 18.745811	
4.58065	 18.790602	
4.65222	 18.792004	
4.72379	 18.715918	
4.79536	 18.759459	
4.86694	 18.734934	
4.93851	 18.780853	
5.01008	 18.728317	
5.08165	 18.764202	
5.15323	 18.794304	
5.2248	 18.738012	
5.29637	 18.773262	
5.36794	 18.794085	
5.43952	 18.818623	
5.51109	 18.783569	
5.58266	 18.768311	
5.65423	 18.844604	
5.72581	 18.802532	
5.79738	 18.780073	
5.86895	 18.756340	
5.94052	 18.801907	
6.0121	 18.802601	
6.08367	 18.732466	
6.15524	 18.765856	
6.22681	 18.755299	
6.29839	 18.757130	
6.36996	 18.722534	
6.44153	 18.798828	
6.5131	 18.797413	
6.58468	 18.722534	
6.65625	 18.783569	
6.72782	 18.754633	
6.7994	 18.782986	
6.87097	 18.737793	
6.94254	 18.738127	
7.01411	 18.829304	
7.08569	 18.768061	
7.15726	 18.813173	
7.22883	 18.739122	
7.3004	 18.797955	
7.37198	 18.769392	
7.44355	 18.723824	
7.51512	 18.779078	
7.58669	 18.768311	
7.65827	 18.741619	
7.72984	 18.724655	
7.80141	 18.781240	
7.87298	 18.773386	
7.94456	 18.715511	
8.01613	 18.734840	
8.0877	 18.765150	
8.15927	 18.792089	
8.23085	 18.715380	
8.30242	 18.775999	
8.37399	 18.802822	
8.44556	 18.768311	
8.51714	 18.790009	
8.58871	 18.784975	
8.66028	 18.844604	
8.73185	 18.748018	
8.80343	 18.753052	
8.875	 18.773760	
8.94657	 18.758709	
9.01815	 18.747187	
9.08972	 18.713348	
9.16129	 18.774591	
9.23286	 18.772520	
9.30444	 18.729233	
9.37601	 18.761404	
9.44758	 18.753052	
9.51915	 18.784185	
9.59073	 18.715004	
9.6623	 18.745531	
9.73387	 18.805508	
9.80544	 18.737793	
9.87702	 18.761414	
9.94859	 18.766430	
10.0202	 18.807606	
10.0917	 18.749493	
10.1633	 18.762245	
10.2349	 18.829346	
10.3065	 18.804478	
10.378	 18.789011	
10.4496	 18.763079	
10.5212	 18.839581	
10.5927	 18.794012	
10.6643	 18.778961	
10.7359	 18.833746	
10.8075	 18.803020	
10.879	 18.814087	
10.9506	 18.772087	
11.0222	 18.844604	
11.0937	 18.844604	
11.1653	 18.792522	
11.2369	 18.792402	
11.3085	 18.783569	
11.38	 18.816616	
11.4516	 18.768311	
11.5232	 18.796715	
11.5948	 18.844604	
11.6663	 18.751356	
11.7379	 18.797340	
11.8095	 18.739073	
11.881	 18.826128	
11.9526	 18.736929	
12.0242	 18.707275	
12.0958	 18.798828	
12.1673	 18.783329	
12.2389	 18.737825	
12.3105	 18.737617	
12.3821	 18.844221	
12.4536	 18.814678	
12.5252	 18.753851	
12.5968	 18.798828	
12.6683	 18.753052	
12.7399	 18.787842	
12.8115	 18.737793	
12.8831	 18.778049	
12.9546	 18.814087	
13.0262	 18.768311	
13.0978	 18.811623	
13.1694	 18.796156	
13.2409	 18.804588	
13.3125	 18.771399	
13.3841	 18.734497	
13.4556	 18.814087	
